<?xml version="1.0" encoding="utf-8"?>
<!-- Generator: Adobe Illustrator 26.1.0, SVG Export Plug-In . SVG Version: 6.00 Build 0)  -->
<svg version="1.1" id="Layer_1" xmlns="http://www.w3.org/2000/svg" xmlns:xlink="http://www.w3.org/1999/xlink" x="0px" y="0px"
	 viewBox="0 0 489.57 283.48" style="enable-background:new 0 0 489.57 283.48;" xml:space="preserve">
<style type="text/css">
	.st0{fill:#FFFFFF;stroke:#000000;stroke-miterlimit:10;}
</style>
<rect x="36.52" y="8.7" class="st0" width="410.43" height="262.61"/>
<g>
	<g>
		<path d="M458.26,132.07c6.96,0,13.91,0,20.87,0c3.22,0,3.22-5,0-5c-6.96,0-13.91,0-20.87,0
			C455.04,127.07,455.04,132.07,458.26,132.07L458.26,132.07z"/>
	</g>
</g>
<g>
	<g>
		<path d="M4.35,132.07c6.96,0,13.91,0,20.87,0c3.22,0,3.22-5,0-5c-6.96,0-13.91,0-20.87,0C1.13,127.07,1.13,132.07,4.35,132.07
			L4.35,132.07z"/>
	</g>
</g>
</svg>
